<?xml version="1.0" encoding="UTF-8"?>
<svg xmlns="http://www.w3.org/2000/svg" id="Layer_1" data-name="Layer 1" viewBox="0 0 24 24">
  <path d="m21.5,2h-3.5V0h-1v2H7V0h-1v2h-3.5c-1.378,0-2.5,1.122-2.5,2.5v19.5h6v-1H1v-14h22v5h1V4.5c0-1.378-1.122-2.5-2.5-2.5ZM1,8v-3.5c0-.827.673-1.5,1.5-1.5h19c.827,0,1.5.673,1.5,1.5v3.5H1Zm8,9v7h-1v-7h-2v-1h5v1h-2Zm14.5-1l-2.206,4.008,2.206,3.992h-1.096l-1.654-3.005-1.654,3.005h-1.096l2.206-3.992-2.206-4.008h1.079l1.671,3.024,1.671-3.024h1.079Zm-8.76.113c-.387-.164-.822-.149-1.191.041-.369.188-.633.526-.722.911l-1.827,6.935h1.034l.527-2h3.178l.496,2h1.03l-1.711-6.901c-.105-.448-.41-.817-.814-.985Zm-1.916,4.887l.973-3.695c.025-.112.101-.207.206-.261.106-.055.234-.058.351-.009.109.046.194.154.228.297l.909,3.667h-2.667Z"/>
</svg>
