<?xml version="1.0" encoding="UTF-8"?>
<svg xmlns="http://www.w3.org/2000/svg" id="Layer_1" data-name="Layer 1" viewBox="0 0 24 24">
  <path d="m4.5,5c1.378,0,2.5-1.121,2.5-2.5S5.878,0,4.5,0s-2.5,1.121-2.5,2.5,1.122,2.5,2.5,2.5Zm0-4c.827,0,1.5.673,1.5,1.5s-.673,1.5-1.5,1.5-1.5-.673-1.5-1.5.673-1.5,1.5-1.5Zm2.5,8.5v14c0,.276-.224.5-.5.5s-.5-.224-.5-.5v-6.5h-2.5c-.171,0-.335-.027-.5-.051v6.551c0,.276-.224.5-.5.5s-.5-.224-.5-.5v-6.851c-1.178-.564-2-1.758-2-3.149v-4c0-1.93,1.57-3.5,3.5-3.5h11c.276,0,.5.224.5.5s-.224.5-.5.5H3.5c-1.378,0-2.5,1.121-2.5,2.5v4c0,1.379,1.122,2.5,2.5,2.5h2.5v-6.5c0-.276.224-.5.5-.5s.5.224.5.5Zm14.5,6.5h-1.513c.317-.419.513-.935.513-1.5v-3c0-1.379-1.122-2.5-2.5-2.5h-3c-1.378,0-2.5,1.121-2.5,2.5v3c0,.565.195,1.081.513,1.5h-1.513c-1.378,0-2.5,1.121-2.5,2.5v3c0,1.379,1.122,2.5,2.5,2.5h3c.821,0,1.544-.403,2-1.015.456.613,1.179,1.015,2,1.015h3c1.378,0,2.5-1.121,2.5-2.5v-3c0-1.379-1.122-2.5-2.5-2.5Zm-8-4.5c0-.827.673-1.5,1.5-1.5h3c.827,0,1.5.673,1.5,1.5v3c0,.827-.673,1.5-1.5,1.5h-3c-.827,0-1.5-.673-1.5-1.5v-3Zm1,11.5h-3c-.827,0-1.5-.673-1.5-1.5v-3c0-.827.673-1.5,1.5-1.5h3c.827,0,1.5.673,1.5,1.5v3c0,.827-.673,1.5-1.5,1.5Zm8.5-1.5c0,.827-.673,1.5-1.5,1.5h-3c-.827,0-1.5-.673-1.5-1.5v-3c0-.827.673-1.5,1.5-1.5h3c.827,0,1.5.673,1.5,1.5v3Zm-7.5-10c0-.276.224-.5.5-.5h1c.276,0,.5.224.5.5s-.224.5-.5.5h-1c-.276,0-.5-.224-.5-.5Zm5.5,7c0,.276-.224.5-.5.5h-1c-.276,0-.5-.224-.5-.5s.224-.5.5-.5h1c.276,0,.5.224.5.5Zm-7,0c0,.276-.224.5-.5.5h-1c-.276,0-.5-.224-.5-.5s.224-.5.5-.5h1c.276,0,.5.224.5.5Z"/>
</svg>
